<mxfile host="app.diagrams.net" modified="2023-10-23T17:21:32.581Z" agent="Mozilla/5.0 (Windows NT 10.0; Win64; x64) AppleWebKit/537.36 (KHTML, like Gecko) Chrome/118.0.0.0 Safari/537.36" etag="m0rhx87TvJKbY67wuRzT" version="22.0.6" type="device">
  <diagram name="Page-1" id="EbAEV_jTW3WetPSAjjS8">
    <mxGraphModel dx="880" dy="490" grid="1" gridSize="10" guides="1" tooltips="1" connect="1" arrows="1" fold="1" page="1" pageScale="1" pageWidth="850" pageHeight="1100" background="#FFFFFF" math="0" shadow="0">
      <root>
        <mxCell id="0" />
        <mxCell id="1" parent="0" />
        <mxCell id="UfVapmBmuUFkcLh0fFch-391" value="" style="edgeStyle=orthogonalEdgeStyle;rounded=0;orthogonalLoop=1;jettySize=auto;html=1;labelBackgroundColor=none;strokeColor=#23445D;fontColor=default;" edge="1" parent="1" source="UfVapmBmuUFkcLh0fFch-392" target="UfVapmBmuUFkcLh0fFch-395">
          <mxGeometry relative="1" as="geometry" />
        </mxCell>
        <mxCell id="UfVapmBmuUFkcLh0fFch-392" value="Sign Up" style="rounded=1;whiteSpace=wrap;html=1;fontSize=15;fontStyle=1;labelBackgroundColor=none;fillColor=#182E3E;strokeColor=#FFFFFF;fontColor=#FFFFFF;" vertex="1" parent="1">
          <mxGeometry x="346" y="71" width="136" height="50" as="geometry" />
        </mxCell>
        <mxCell id="UfVapmBmuUFkcLh0fFch-393" value="" style="edgeStyle=orthogonalEdgeStyle;rounded=0;orthogonalLoop=1;jettySize=auto;html=1;labelBackgroundColor=none;strokeColor=#23445D;fontColor=default;" edge="1" parent="1" source="UfVapmBmuUFkcLh0fFch-395" target="UfVapmBmuUFkcLh0fFch-396">
          <mxGeometry relative="1" as="geometry" />
        </mxCell>
        <mxCell id="UfVapmBmuUFkcLh0fFch-394" value="" style="edgeStyle=orthogonalEdgeStyle;rounded=0;orthogonalLoop=1;jettySize=auto;html=1;labelBackgroundColor=none;strokeColor=#23445D;fontColor=default;" edge="1" parent="1" source="UfVapmBmuUFkcLh0fFch-395">
          <mxGeometry relative="1" as="geometry">
            <mxPoint x="414" y="280" as="targetPoint" />
          </mxGeometry>
        </mxCell>
        <mxCell id="UfVapmBmuUFkcLh0fFch-395" value="all input given?" style="rhombus;whiteSpace=wrap;html=1;labelBackgroundColor=none;fillColor=#182E3E;strokeColor=#FFFFFF;fontColor=#FFFFFF;" vertex="1" parent="1">
          <mxGeometry x="374" y="160" width="80" height="80" as="geometry" />
        </mxCell>
        <mxCell id="UfVapmBmuUFkcLh0fFch-396" value="Give appropriate response asking input" style="rounded=1;whiteSpace=wrap;html=1;labelBackgroundColor=none;fillColor=#182E3E;strokeColor=#FFFFFF;fontColor=#FFFFFF;" vertex="1" parent="1">
          <mxGeometry x="522" y="183" width="128" height="34" as="geometry" />
        </mxCell>
        <mxCell id="UfVapmBmuUFkcLh0fFch-397" value="No" style="text;html=1;strokeColor=none;fillColor=none;align=center;verticalAlign=middle;whiteSpace=wrap;rounded=0;labelBackgroundColor=none;fontColor=#000000;" vertex="1" parent="1">
          <mxGeometry x="454" y="180" width="60" height="30" as="geometry" />
        </mxCell>
        <mxCell id="UfVapmBmuUFkcLh0fFch-398" value="Yes" style="text;html=1;strokeColor=none;fillColor=none;align=center;verticalAlign=middle;whiteSpace=wrap;rounded=0;labelBackgroundColor=none;fontColor=#000000;" vertex="1" parent="1">
          <mxGeometry x="400" y="240" width="60" height="30" as="geometry" />
        </mxCell>
        <mxCell id="UfVapmBmuUFkcLh0fFch-399" value="" style="edgeStyle=orthogonalEdgeStyle;rounded=0;orthogonalLoop=1;jettySize=auto;html=1;labelBackgroundColor=none;strokeColor=#23445D;fontColor=default;" edge="1" parent="1" source="UfVapmBmuUFkcLh0fFch-401" target="UfVapmBmuUFkcLh0fFch-402">
          <mxGeometry relative="1" as="geometry" />
        </mxCell>
        <mxCell id="UfVapmBmuUFkcLh0fFch-400" value="" style="edgeStyle=orthogonalEdgeStyle;rounded=0;orthogonalLoop=1;jettySize=auto;html=1;labelBackgroundColor=none;strokeColor=#23445D;fontColor=default;" edge="1" parent="1" source="UfVapmBmuUFkcLh0fFch-401" target="UfVapmBmuUFkcLh0fFch-405">
          <mxGeometry relative="1" as="geometry" />
        </mxCell>
        <mxCell id="UfVapmBmuUFkcLh0fFch-401" value="is &lt;br&gt;username unique?" style="rhombus;whiteSpace=wrap;html=1;labelBackgroundColor=none;fillColor=#182E3E;strokeColor=#FFFFFF;fontColor=#FFFFFF;" vertex="1" parent="1">
          <mxGeometry x="374" y="280" width="80" height="80" as="geometry" />
        </mxCell>
        <mxCell id="UfVapmBmuUFkcLh0fFch-402" value="username already taken" style="rounded=1;whiteSpace=wrap;html=1;labelBackgroundColor=none;fillColor=#182E3E;strokeColor=#FFFFFF;fontColor=#FFFFFF;" vertex="1" parent="1">
          <mxGeometry x="514" y="300" width="120" height="40" as="geometry" />
        </mxCell>
        <mxCell id="UfVapmBmuUFkcLh0fFch-403" value="" style="edgeStyle=orthogonalEdgeStyle;rounded=0;orthogonalLoop=1;jettySize=auto;html=1;labelBackgroundColor=none;strokeColor=#23445D;fontColor=default;" edge="1" parent="1" source="UfVapmBmuUFkcLh0fFch-405" target="UfVapmBmuUFkcLh0fFch-406">
          <mxGeometry relative="1" as="geometry" />
        </mxCell>
        <mxCell id="UfVapmBmuUFkcLh0fFch-404" value="" style="edgeStyle=orthogonalEdgeStyle;rounded=0;orthogonalLoop=1;jettySize=auto;html=1;labelBackgroundColor=none;strokeColor=#23445D;fontColor=default;" edge="1" parent="1" source="UfVapmBmuUFkcLh0fFch-405" target="UfVapmBmuUFkcLh0fFch-409">
          <mxGeometry relative="1" as="geometry" />
        </mxCell>
        <mxCell id="UfVapmBmuUFkcLh0fFch-405" value="is &lt;br&gt;email&lt;br&gt;unique?" style="rhombus;whiteSpace=wrap;html=1;labelBackgroundColor=none;fillColor=#182E3E;strokeColor=#FFFFFF;fontColor=#FFFFFF;" vertex="1" parent="1">
          <mxGeometry x="214" y="280" width="80" height="80" as="geometry" />
        </mxCell>
        <mxCell id="UfVapmBmuUFkcLh0fFch-406" value="email already taken" style="rounded=1;whiteSpace=wrap;html=1;labelBackgroundColor=none;fillColor=#182E3E;strokeColor=#FFFFFF;fontColor=#FFFFFF;" vertex="1" parent="1">
          <mxGeometry x="34" y="300" width="120" height="40" as="geometry" />
        </mxCell>
        <mxCell id="UfVapmBmuUFkcLh0fFch-407" value="" style="edgeStyle=orthogonalEdgeStyle;rounded=0;orthogonalLoop=1;jettySize=auto;html=1;labelBackgroundColor=none;strokeColor=#23445D;fontColor=default;" edge="1" parent="1" source="UfVapmBmuUFkcLh0fFch-409" target="UfVapmBmuUFkcLh0fFch-410">
          <mxGeometry relative="1" as="geometry" />
        </mxCell>
        <mxCell id="UfVapmBmuUFkcLh0fFch-408" value="" style="edgeStyle=orthogonalEdgeStyle;rounded=0;orthogonalLoop=1;jettySize=auto;html=1;labelBackgroundColor=none;strokeColor=#23445D;fontColor=default;" edge="1" parent="1" source="UfVapmBmuUFkcLh0fFch-409" target="UfVapmBmuUFkcLh0fFch-411">
          <mxGeometry relative="1" as="geometry" />
        </mxCell>
        <mxCell id="UfVapmBmuUFkcLh0fFch-409" value="All data &lt;br&gt;valid?" style="rhombus;whiteSpace=wrap;html=1;labelBackgroundColor=none;fillColor=#182E3E;strokeColor=#FFFFFF;fontColor=#FFFFFF;" vertex="1" parent="1">
          <mxGeometry x="214" y="420" width="80" height="80" as="geometry" />
        </mxCell>
        <mxCell id="UfVapmBmuUFkcLh0fFch-410" value="Give appropriate response asking for valid data" style="rounded=1;whiteSpace=wrap;html=1;labelBackgroundColor=none;fillColor=#182E3E;strokeColor=#FFFFFF;fontColor=#FFFFFF;" vertex="1" parent="1">
          <mxGeometry x="354" y="440" width="206" height="40" as="geometry" />
        </mxCell>
        <mxCell id="UfVapmBmuUFkcLh0fFch-411" value="Account Created" style="rounded=1;whiteSpace=wrap;html=1;fontSize=15;fontStyle=1;labelBackgroundColor=none;fillColor=#182E3E;strokeColor=#FFFFFF;fontColor=#FFFFFF;" vertex="1" parent="1">
          <mxGeometry x="186" y="567" width="136" height="53" as="geometry" />
        </mxCell>
        <mxCell id="UfVapmBmuUFkcLh0fFch-412" value="No" style="text;html=1;strokeColor=none;fillColor=none;align=center;verticalAlign=middle;whiteSpace=wrap;rounded=0;labelBackgroundColor=none;fontColor=#000000;" vertex="1" parent="1">
          <mxGeometry x="454" y="300" width="60" height="30" as="geometry" />
        </mxCell>
        <mxCell id="UfVapmBmuUFkcLh0fFch-413" value="Yes" style="text;html=1;strokeColor=none;fillColor=none;align=center;verticalAlign=middle;whiteSpace=wrap;rounded=0;labelBackgroundColor=none;fontColor=#000000;" vertex="1" parent="1">
          <mxGeometry x="314" y="300" width="60" height="30" as="geometry" />
        </mxCell>
        <mxCell id="UfVapmBmuUFkcLh0fFch-414" value="No" style="text;html=1;strokeColor=none;fillColor=none;align=center;verticalAlign=middle;whiteSpace=wrap;rounded=0;labelBackgroundColor=none;fontColor=#000000;" vertex="1" parent="1">
          <mxGeometry x="154" y="300" width="60" height="30" as="geometry" />
        </mxCell>
        <mxCell id="UfVapmBmuUFkcLh0fFch-415" value="Yes" style="text;html=1;strokeColor=none;fillColor=none;align=center;verticalAlign=middle;whiteSpace=wrap;rounded=0;labelBackgroundColor=none;fontColor=#000000;" vertex="1" parent="1">
          <mxGeometry x="240" y="370" width="60" height="30" as="geometry" />
        </mxCell>
        <mxCell id="UfVapmBmuUFkcLh0fFch-416" value="No" style="text;html=1;strokeColor=none;fillColor=none;align=center;verticalAlign=middle;whiteSpace=wrap;rounded=0;labelBackgroundColor=none;fontColor=#000000;" vertex="1" parent="1">
          <mxGeometry x="290" y="430" width="60" height="30" as="geometry" />
        </mxCell>
        <mxCell id="UfVapmBmuUFkcLh0fFch-417" value="Yes" style="text;html=1;strokeColor=none;fillColor=none;align=center;verticalAlign=middle;whiteSpace=wrap;rounded=0;labelBackgroundColor=none;fontColor=#000000;" vertex="1" parent="1">
          <mxGeometry x="210" y="510" width="60" height="30" as="geometry" />
        </mxCell>
        <mxCell id="UfVapmBmuUFkcLh0fFch-418" value="" style="endArrow=classic;html=1;rounded=0;entryX=1;entryY=0;entryDx=0;entryDy=0;" edge="1" parent="1" target="UfVapmBmuUFkcLh0fFch-395">
          <mxGeometry width="50" height="50" relative="1" as="geometry">
            <mxPoint x="580" y="180" as="sourcePoint" />
            <mxPoint x="630" y="130" as="targetPoint" />
            <Array as="points">
              <mxPoint x="580" y="160" />
              <mxPoint x="490" y="160" />
            </Array>
          </mxGeometry>
        </mxCell>
        <mxCell id="UfVapmBmuUFkcLh0fFch-419" value="" style="endArrow=classic;html=1;rounded=0;entryX=1;entryY=0;entryDx=0;entryDy=0;" edge="1" parent="1" target="UfVapmBmuUFkcLh0fFch-401">
          <mxGeometry width="50" height="50" relative="1" as="geometry">
            <mxPoint x="570" y="300" as="sourcePoint" />
            <mxPoint x="620" y="250" as="targetPoint" />
            <Array as="points">
              <mxPoint x="570" y="280" />
              <mxPoint x="480" y="280" />
            </Array>
          </mxGeometry>
        </mxCell>
        <mxCell id="UfVapmBmuUFkcLh0fFch-420" value="" style="endArrow=classic;html=1;rounded=0;entryX=0.5;entryY=0;entryDx=0;entryDy=0;" edge="1" parent="1" target="UfVapmBmuUFkcLh0fFch-405">
          <mxGeometry width="50" height="50" relative="1" as="geometry">
            <mxPoint x="90" y="300" as="sourcePoint" />
            <mxPoint x="140" y="250" as="targetPoint" />
            <Array as="points">
              <mxPoint x="90" y="260" />
              <mxPoint x="254" y="260" />
            </Array>
          </mxGeometry>
        </mxCell>
        <mxCell id="UfVapmBmuUFkcLh0fFch-421" value="" style="endArrow=classic;html=1;rounded=0;entryX=1;entryY=0;entryDx=0;entryDy=0;" edge="1" parent="1" target="UfVapmBmuUFkcLh0fFch-409">
          <mxGeometry width="50" height="50" relative="1" as="geometry">
            <mxPoint x="460" y="440" as="sourcePoint" />
            <mxPoint x="510" y="390" as="targetPoint" />
            <Array as="points">
              <mxPoint x="460" y="410" />
              <mxPoint x="320" y="410" />
            </Array>
          </mxGeometry>
        </mxCell>
      </root>
    </mxGraphModel>
  </diagram>
</mxfile>
